<svg width="22" height="20" viewBox="0 0 22 20" fill="none" xmlns="http://www.w3.org/2000/svg">
<path d="M1.57031 1.04324H2.95631C3.46631 1.04324 3.91131 1.38624 4.04331 1.87824L4.42631 3.31524M4.42631 3.31524C9.99695 3.15913 15.5622 3.7784 20.9623 5.15524C20.1383 7.60924 19.1593 9.99324 18.0383 12.2932H6.82031M4.42631 3.31524L6.82031 12.2932M6.82031 12.2932C6.02466 12.2932 5.2616 12.6093 4.69899 13.1719C4.13638 13.7345 3.82031 14.4976 3.82031 15.2932H19.5703M5.32031 18.2932C5.32031 18.4922 5.24129 18.6829 5.10064 18.8236C4.95999 18.9642 4.76922 19.0432 4.57031 19.0432C4.3714 19.0432 4.18063 18.9642 4.03998 18.8236C3.89933 18.6829 3.82031 18.4922 3.82031 18.2932C3.82031 18.0943 3.89933 17.9036 4.03998 17.7629C4.18063 17.6223 4.3714 17.5432 4.57031 17.5432C4.76922 17.5432 4.95999 17.6223 5.10064 17.7629C5.24129 17.9036 5.32031 18.0943 5.32031 18.2932ZM18.0703 18.2932C18.0703 18.4922 17.9913 18.6829 17.8506 18.8236C17.71 18.9642 17.5192 19.0432 17.3203 19.0432C17.1214 19.0432 16.9306 18.9642 16.79 18.8236C16.6493 18.6829 16.5703 18.4922 16.5703 18.2932C16.5703 18.0943 16.6493 17.9036 16.79 17.7629C16.9306 17.6223 17.1214 17.5432 17.3203 17.5432C17.5192 17.5432 17.71 17.6223 17.8506 17.7629C17.9913 17.9036 18.0703 18.0943 18.0703 18.2932Z" stroke="white" stroke-width="1.5" stroke-linecap="round" stroke-linejoin="round"/>
</svg>
